# xmcd CD database file
#
# Track frame offsets:
#	150
#	16206
#	37035
#	55263
#	75375
#	92170
#	105936
#	125438
#	142494
#	149761
#	159636
#	175097
#	192797
#	203019
#	219477
#	238327
#
# Disc length: 3274 seconds
#
# Revision: 1
# Processed by: cddbd v1.5.2PL0 Copyright (c) Steve Scherf et al.
# Submitted via: CDex 1.51
#
DISCID=e50cc810
DTITLE=Radio Citizen - Berlin Serengeti
DYEAR=2006
DGENRE=Jazz
TTITLE0=The Hop (ft Bajka)
TTITLE1=Mondlicht
TTITLE2=Everything (ft Bajka)
TTITLE3=Night Part I
TTITLE4=Night Part II
TTITLE5=El Cielo (ft Bajka)
TTITLE6=Birds
TTITLE7=The Prophets
TTITLE8=Roads
TTITLE9=Voices (ft Bajka)
TTITLE10=Black Forest
TTITLE11=Championsound (ft Bajka)
TTITLE12=Dust (ft Gaelle)
TTITLE13=Density
TTITLE14=Nightingale (ft Bajka)
TTITLE15=Love Serenity Blues
EXTD=YEAR: 2006
EXTT0=
EXTT1=
EXTT2=
EXTT3=
EXTT4=
EXTT5=
EXTT6=
EXTT7=
EXTT8=
EXTT9=
EXTT10=
EXTT11=
EXTT12=
EXTT13=
EXTT14=
EXTT15=
PLAYORDER=
